# File created by Blade
# Date/Time:  Fri Jan 16 17:18:57 2015
#---------------------------------------------------------
:version 1.10
:name HOM
:units
  mass 1.0
  length 1.000000
  angle deg
:documentation
     Acclaim Skeleton File
:root
   axis xyz
   order TX TY TZ RX RY RZ
   position 0.000000 0.000000 0.000000
   orientation 0 0 0
:bonedata
   begin
      id 1
      name Spine_dum
      direction 0.000000 1.000000 0.000000
      length 7.170412
      axis 0.0 0.0 0.0 xyz
   end
   begin
      id 2
      name LeftUpLeg_dum
      direction 1.000000 0.000000 0.000000
      length 4.318350
      axis 0.0 0.0 0.0 xyz
   end
   begin
      id 3
      name RightUpLeg_dum
      direction -1.000000 0.000000 0.000000
      length 4.318350
      axis 0.0 0.0 0.0 xyz
   end
   begin
      id 4
      name Spine
      direction 0.000000 1.000000 0.000000
      length 0.000000
      axis 0.0 0.0 0.0 xyz
      dof rx ry rz
   end
   begin
      id 5
      name Spine_dum1
      direction 0.000000 1.000000 0.000000
      length 14.276153
      axis 0.0 0.0 0.0 xyz
   end
   begin
      id 6
      name Spine_dum2
      direction 0.000000 1.000000 0.000000
      length 10.718243
      axis 0.0 0.0 0.0 xyz
   end
   begin
      id 7
      name Spine_dum3
      direction 0.000000 1.000000 0.000000
      length 10.718243
      axis 0.0 0.0 0.0 xyz
   end
   begin
      id 8
      name Head
      direction 0.000000 1.000000 0.000000
      length 4.527550
      axis 0.0 0.0 0.0 xyz
      dof rx ry rz
   end
   begin
      id 9
      name LeftShoulder
      direction 1.000000 0.000000 0.000000
      length 7.058872
      axis 0.0 0.0 -90.0 xyz
      dof rx ry rz
   end
   begin
      id 10
      name LeftArm
      direction 1.000000 0.000000 0.000000
      length 10.955525
      axis 0.0 0.0 -90.0 xyz
      dof rx ry rz
   end
   begin
      id 11
      name LeftForeArm
      direction 1.000000 0.000000 0.000000
      length 8.193716
      axis 0.0 0.0 -90.0 xyz
      dof ry rz rx
   end
   begin
      id 12
      name LeftHand
      direction 0.000000 0.000000 0.000000
      length 0.000000
      axis 0.0 0.0 -90.0 xyz
      dof rx ry rz
   end
   begin
      id 13
      name LeftHand_dum1
      direction 0.000000 0.000000 0.000000
      length 0.000000
      axis 0.0 0.0 -90.0 xyz
   end
   begin
      id 14
      name LeftHand_dum2
      direction 1.000000 0.000000 0.000000
      length 3.937000
      axis 0.0 0.0 -90.0 xyz
   end
   begin
      id 15
      name LeftHandThumb1
      direction 0.000000 0.000000 1.000000
      length 3.937000
      axis 0.0 0.0 -90.0 xyz
      dof rx rz ry
   end
   begin
      id 16
      name RightShoulder
      direction -1.000000 0.000000 0.000000
      length 7.058872
      axis 0.0 0.0 90.0 xyz
      dof rx ry rz
   end
   begin
      id 17
      name RightArm
      direction -1.000000 0.000000 0.000000
      length 10.955525
      axis 0.0 0.0 90.0 xyz
      dof rx ry rz
   end
   begin
      id 18
      name RightForeArm
      direction -1.000000 0.000000 0.000000
      length 8.193716
      axis 0.0 0.0 90.0 xyz
      dof ry rz rx
   end
   begin
      id 19
      name RightHand
      direction 0.000000 0.000000 0.000000
      length 0.000000
      axis 0.0 0.0 90.0 xyz
      dof rx ry rz
   end
   begin
      id 20
      name RightHand_dum1
      direction 0.000000 0.000000 0.000000
      length 0.000000
      axis 0.0 0.0 90.0 xyz
   end
   begin
      id 21
      name RightHand_dum2
      direction -1.000000 0.000000 0.000000
      length 3.937000
      axis 0.0 0.0 90.0 xyz
   end
   begin
      id 22
      name RightHandThumb1
      direction 0.000000 0.000000 1.000000
      length 3.937000
      axis 0.0 0.0 90.0 xyz
      dof rx rz ry
   end
   begin
      id 23
      name LeftUpLeg
      direction 0.000000 -1.000000 0.000000
      length 17.323638
      axis 0.0 0.0 0.0 xyz
      dof rx ry rz
   end
   begin
      id 24
      name LeftLeg
      direction 0.000000 -1.000000 0.000000
      length 16.270368
      axis 0.0 0.0 0.0 xyz
      dof rx ry rz
   end
   begin
      id 25
      name LeftFoot
      direction 0.000000 -0.258819 0.965926
      length 4.922846
      axis 15.0 0.0 0.0 xyz
      dof rx ry rz
   end
   begin
      id 26
      name LeftToeBase
      direction 0.000000 0.000000 1.000000
      length 2.952750
      axis 0.0 0.0 0.0 xyz
      dof rx ry rz
   end
   begin
      id 27
      name RightUpLeg
      direction 0.000000 -1.000000 0.000000
      length 17.323638
      axis 0.0 0.0 0.0 xyz
      dof rx ry rz
   end
   begin
      id 28
      name RightLeg
      direction 0.000000 -1.000000 0.000000
      length 16.270368
      axis 0.0 0.0 0.0 xyz
      dof rx ry rz
   end
   begin
      id 29
      name RightFoot
      direction 0.000000 -0.258819 0.965926
      length 4.922846
      axis 15.0 0.0 0.0 xyz
      dof rx ry rz
   end
   begin
      id 30
      name RightToeBase
      direction 0.000000 0.000000 1.000000
      length 2.952750
      axis 0.0 0.0 0.0 xyz
      dof rx ry rz
   end
:hierarchy
   begin
      root Spine_dum LeftUpLeg_dum RightUpLeg_dum
      Spine_dum Spine
      LeftUpLeg_dum LeftUpLeg
      RightUpLeg_dum RightUpLeg
      Spine Spine_dum1 Spine_dum2 Spine_dum3
      Spine_dum1 Head
      Spine_dum2 LeftShoulder
      Spine_dum3 RightShoulder
      LeftShoulder LeftArm
      LeftArm LeftForeArm
      LeftForeArm LeftHand
      LeftHand LeftHand_dum1 LeftHand_dum2
      LeftHand_dum1 LeftHandThumb1
      RightShoulder RightArm
      RightArm RightForeArm
      RightForeArm RightHand
      RightHand RightHand_dum1 RightHand_dum2
      RightHand_dum1 RightHandThumb1
      LeftUpLeg LeftLeg
      LeftLeg LeftFoot
      LeftFoot LeftToeBase
      RightUpLeg RightLeg
      RightLeg RightFoot
      RightFoot RightToeBase
   end

# File created by Blade
# Date/Time:  Fri Jan 16 17:19:08 2015
# Frame Rate: 120.000 fps
#------------------------------------------------------
:FULLY-SPECIFIED
:DEGREES
681
root -5.581905 35.202121 -9.550386 -1.683710 -4.496859 -5.885173
Spine -1.785034 -0.078292 9.143452
Head 4.221720 2.914219 -8.483492
LeftShoulder -20.838092 14.162976 -16.262721
LeftArm 20.668355 -7.253513 -75.127035
LeftForeArm 15.465095 -0.000000 12.146051
LeftHand 0.382863 0.000000 -5.269762
LeftHandThumb1 -26.253704 0.000000 33.147579
RightShoulder -3.390311 3.270946 -3.697294
RightArm 0.729481 -1.789762 46.724852
RightForeArm -5.054490 -0.000000 13.486336
RightHand -0.251646 -0.000000 8.676295
RightHandThumb1 -24.326973 -0.000000 -32.862282
LeftUpLeg 12.272981 14.048022 7.611347
LeftLeg -9.140119 -0.000000 0.000000
LeftFoot -15.842789 26.881533 -8.688081
LeftToeBase 22.608841 -0.000000 -0.000000
RightUpLeg 9.343932 -3.985288 4.518903
RightLeg -5.261045 -0.000000 0.000000
RightFoot -4.625859 -29.328625 3.386533
RightToeBase 13.815600 -0.000000 -0.000000
682
root -5.583625 35.202346 -9.544505 -1.710812 -4.507150 -5.894183
Spine -1.738843 -0.167603 9.173150
Head 4.207602 3.005480 -8.479977
LeftShoulder -20.853954 14.186247 -16.262298
LeftArm 20.622007 -7.172369 -75.121682
LeftForeArm 15.467935 0.000000 12.113679
LeftHand 0.371855 -0.000000 -5.240587
LeftHandThumb1 -26.253704 0.000000 33.147579
RightShoulder -3.453171 3.215167 -3.655995
RightArm 0.658163 -1.778053 46.767823
RightForeArm -5.166133 0.000000 13.374604
RightHand -0.384976 -0.000000 8.641733
RightHandThumb1 -24.326973 -0.000000 -32.862282
LeftUpLeg 12.320360 13.986921 7.624013
LeftLeg -9.154716 -0.000000 0.000000
LeftFoot -15.856171 26.941235 -8.713393
LeftToeBase 22.584833 -0.000000 -0.000000
RightUpLeg 9.374862 -4.007516 4.525825
RightLeg -5.249907 -0.000000 0.000000
RightFoot -4.642137 -29.316582 3.409038
RightToeBase 13.809794 -0.000000 -0.000000
683
root -5.586300 35.202544 -9.541554 -1.705923 -4.512045 -5.902879
Spine -1.740103 -0.265067 9.204148
Head 4.221324 3.106621 -8.494448
LeftShoulder -20.861892 14.201884 -16.250356
LeftArm 20.566464 -7.160896 -75.142159
LeftForeArm 15.522002 -0.000000 12.043992
LeftHand 0.404289 -0.000000 -5.233167
LeftHandThumb1 -26.253704 0.000000 33.147579
RightShoulder -3.479437 3.204047 -3.619052
RightArm 0.514545 -1.504570 46.824055
RightForeArm -5.491000 -0.000000 13.321000
RightHand -0.477879 -0.000000 8.821016
RightHandThumb1 -24.326973 -0.000000 -32.862282
LeftUpLeg 12.327471 13.967077 7.635984
LeftLeg -9.161684 -0.000000 0.000000
LeftFoot -15.861845 26.951102 -8.719186
LeftToeBase 22.615396 -0.000000 -0.000000
RightUpLeg 9.368360 -4.030192 4.535713
RightLeg -5.234388 -0.000000 0.000000
RightFoot -4.641279 -29.290380 3.402086
RightToeBase 13.786166 -0.000000 -0.000000
684
root -5.588502 35.202528 -9.539372 -1.700059 -4.531737 -5.912498
Spine -1.736628 -0.358124 9.238528
Head 4.229225 3.209137 -8.502459
LeftShoulder -20.890811 14.211957 -16.252427
LeftArm 20.531076 -7.108714 -75.141043
LeftForeArm 15.553289 -0.000000 11.946579
LeftHand 0.365191 -0.000000 -5.348133
LeftHandThumb1 -26.253704 0.000000 33.147579
RightShoulder -3.506888 3.245836 -3.615456
RightArm 0.370903 -1.334477 46.921886
RightForeArm -5.661680 -0.000000 13.239440
RightHand -0.581878 -0.000000 8.724873
RightHandThumb1 -24.326973 -0.000000 -32.862282
LeftUpLeg 12.332623 13.958686 7.647649
LeftLeg -9.164785 -0.000000 0.000000
LeftFoot -15.859563 26.970477 -8.715311
LeftToeBase 22.584114 -0.000000 -0.000000
RightUpLeg 9.355042 -4.069608 4.545227
RightLeg -5.213348 -0.000000 0.000000
RightFoot -4.658158 -29.252306 3.400919
RightToeBase 13.865134 -0.000000 -0.000000
685
root -5.589951 35.202851 -9.536191 -1.700030 -4.563651 -5.918348
Spine -1.731745 -0.449861 9.271709
Head 4.240921 3.335570 -8.500950
LeftShoulder -20.910327 14.221778 -16.257885
LeftArm 20.488917 -7.099314 -75.149961
LeftForeArm 15.603940 -0.000000 11.827743
LeftHand 0.316255 0.000000 -5.463565
LeftHandThumb1 -26.253704 0.000000 33.147579
RightShoulder -3.516817 3.295367 -3.596637
RightArm 0.224722 -1.272262 46.970251
RightForeArm -5.864408 -0.000000 13.184711
RightHand -0.669884 0.000000 8.736979
RightHandThumb1 -24.326973 -0.000000 -32.862282
LeftUpLeg 12.346982 13.939510 7.656386
LeftLeg -9.162043 -0.000000 0.000000
LeftFoot -15.900387 27.008708 -8.691422
LeftToeBase 22.766300 -0.000000 -0.000000
RightUpLeg 9.353700 -4.080750 4.550385
RightLeg -5.202613 -0.000000 0.000000
RightFoot -4.661862 -29.236324 3.418610
RightToeBase 13.778730 -0.000000 -0.000000
686
root -5.590747 35.202918 -9.533491 -1.693797 -4.595429 -5.922832
Spine -1.731871 -0.548162 9.320184
Head 4.242922 3.523384 -8.488416
LeftShoulder -20.936904 14.214925 -16.280452
LeftArm 20.449663 -7.096770 -75.145153
LeftForeArm 15.546136 -0.000000 11.678478
LeftHand 0.362293 -0.000000 -5.412645
LeftHandThumb1 -26.253704 0.000000 33.147579
RightShoulder -3.511915 3.341094 -3.609333
RightArm 0.076428 -0.988598 47.057613
RightForeArm -6.285803 0.000000 13.186851
RightHand -0.777272 -0.000000 8.658696
RightHandThumb1 -24.326973 -0.000000 -32.862282
LeftUpLeg 12.353124 13.905929 7.650664
LeftLeg -9.169632 -0.000000 0.000000
LeftFoot -15.936565 27.053705 -8.858143
LeftToeBase 22.595030 -0.000000 -0.000000
RightUpLeg 9.339968 -4.116804 4.550858
RightLeg -5.180625 -0.000000 0.000000
RightFoot -4.670209 -29.186777 3.401534
RightToeBase 13.805972 -0.000000 -0.000000
687
root -5.593891 35.202660 -9.532257 -1.684592 -4.647330 -5.938943
Spine -1.727823 -0.611729 9.361436
Head 4.240455 3.614526 -8.492854
LeftShoulder -20.966207 14.205371 -16.282372
LeftArm 20.423162 -7.114078 -75.165251
LeftForeArm 15.563000 -0.000000 11.522541
LeftHand 0.363450 -0.000000 -5.429891
LeftHandThumb1 -26.253704 0.000000 33.147579
RightShoulder -3.519111 3.384632 -3.600053
RightArm -0.042759 -0.880640 47.107002
RightForeArm -6.437139 -0.000000 13.169611
RightHand -0.897055 0.000000 8.632254
RightHandThumb1 -24.326973 -0.000000 -32.862282
LeftUpLeg 12.362757 13.893972 7.670293
LeftLeg -9.169358 -0.000000 0.000000
LeftFoot -15.957858 27.112122 -8.791973
LeftToeBase 22.727622 -0.000000 -0.000000
RightUpLeg 9.318674 -4.135875 4.568346
RightLeg -5.156454 -0.000000 0.000000
RightFoot -4.678509 -29.140736 3.406741
RightToeBase 13.823280 -0.000000 -0.000000
688
root -5.596440 35.203010 -9.529232 -1.689177 -4.691881 -5.935420
Spine -1.718195 -0.655271 9.354151
Head 4.255866 3.559121 -8.505513
LeftShoulder -20.977671 14.223885 -16.273038
LeftArm 20.424029 -7.123326 -75.179920
LeftForeArm 15.533673 -0.000000 11.364514
LeftHand 0.369412 -0.000000 -5.456930
LeftHandThumb1 -26.253704 0.000000 33.147579
RightShoulder -3.522559 3.413769 -3.540442
RightArm -0.133184 -0.739864 47.110964
RightForeArm -6.789617 -0.000000 13.085801
RightHand -0.882174 -0.000000 8.638436
RightHandThumb1 -24.326973 -0.000000 -32.862282
LeftUpLeg 12.378131 13.856537 7.669472
LeftLeg -9.156569 -0.000000 0.000000
LeftFoot -15.998760 27.161433 -8.849179
LeftToeBase 22.784664 -0.000000 -0.000000
RightUpLeg 9.321512 -4.143308 4.563099
RightLeg -5.145014 -0.000000 0.000000
RightFoot -4.692940 -29.096699 3.416774
RightToeBase 13.842457 -0.000000 -0.000000
